<?xml version="1.0" ?><svg style="enable-background:new 0 0 32 32;" version="1.1" viewBox="0 0 32 32" xml:space="preserve" xmlns="http://www.w3.org/2000/svg" xmlns:xlink="http://www.w3.org/1999/xlink"><style type="text/css">
	.st0{fill:#222A30;}
	.st1{fill:none;stroke:#222A30;stroke-width:1.8761;stroke-linejoin:round;stroke-miterlimit:10;}
	.st2{fill:#171715;}
	.st3{fill-rule:evenodd;clip-rule:evenodd;fill:#222A30;}
</style><g id="Layer_1"/><g id="icons"><g id="box"><path class="st0" d="M11.8,16.5c0,1-0.8,1.8-1.8,1.8c-1,0-1.7-0.8-1.7-1.8c0-1,0.8-1.7,1.7-1.7C11,14.8,11.8,15.5,11.8,16.5z"/><path class="st0" d="M17.9,16.5c0,1-0.8,1.8-1.7,1.8c-1,0-1.8-0.8-1.8-1.8c0-1,0.8-1.7,1.8-1.7C17.1,14.8,17.9,15.5,17.9,16.5z"/><path class="st0" d="M14.2,2.1C7.9,2.9,2.9,7.9,2.1,14.2C1,23.4,8.7,31,17.8,29.9c6.2-0.8,11.3-5.8,12.1-12.1    C31,8.7,23.4,1,14.2,2.1z M16.2,19.9c-1.4,0-2.6-0.8-3.1-2c-0.6,1.4-2.2,2.3-3.9,1.9c-1.5-0.4-2.5-1.8-2.5-3.4v-5.5    c0-0.4,0.4-0.8,0.8-0.8c0.4,0,0.8,0.4,0.8,0.8v2.8c0.5-0.3,1.1-0.5,1.7-0.5c1.4,0,2.6,0.8,3.1,2c0.6-1.4,2.2-2.3,3.9-1.9    c1.2,0.3,2.2,1.3,2.5,2.5C19.9,17.9,18.3,19.9,16.2,19.9z M25.1,18.7c0.3,0.3,0.3,0.8-0.1,1.1c-0.1,0.1-0.3,0.2-0.5,0.2    c-0.2,0-0.4-0.1-0.6-0.3l-1.3-1.5c-0.3-0.3-0.8-0.3-1,0l-1.3,1.5c-0.2,0.2-0.4,0.3-0.6,0.3c-0.2,0-0.4-0.1-0.5-0.2    c-0.3-0.3-0.4-0.8-0.1-1.1l1.6-1.8c0.2-0.3,0.2-0.6,0-0.9l-1.6-1.8c-0.3-0.3-0.3-0.8,0.1-1.1c0.3-0.3,0.8-0.3,1.1,0.1l1.3,1.5    c0.3,0.3,0.8,0.3,1,0l1.3-1.5c0.3-0.3,0.8-0.4,1.1-0.1c0.3,0.3,0.4,0.8,0.1,1.1L23.6,16c-0.2,0.3-0.2,0.6,0,0.9L25.1,18.7z"/></g></g></svg>